<?xml version="1.0"?>
<svg xmlns="http://www.w3.org/2000/svg" xmlns:xlink="http://www.w3.org/1999/xlink" version="1.1" id="Capa_1" x="0px" y="0px" viewBox="0 0 408 408" style="enable-background:new 0 0 408 408;" xml:space="preserve" width="512px" height="512px" class=""><g><g>
	<g>
		<g>
			<path d="M204,75.4c-38.4,0-73.2,15.6-98,40.8c-25.2,25.2-40.8,60-40.8,98s15.6,73.2,40.8,98c25.2,25.2,60,40.8,98,40.8     c38.4,0,73.2-15.6,98-40.8c25.2-25.2,40.8-60,40.8-98S327.2,141,302,115.8C277.2,91,242.4,75.4,204,75.4z M310.4,221.8h17.2     c-2,30.8-15.2,59.2-36,79.6c-20.8,20.8-48.8,34-80,36v-17.2c0-4-3.2-7.6-7.6-7.6c-4,0-7.6,3.2-7.6,7.6v17.2     c-31.2-2-59.2-15.2-80-36c-20.8-20.8-34-48.8-36-80h17.2c4,0,7.6-3.2,7.6-7.6c0-4-3.2-7.6-7.6-7.6H80.4c2-31.2,15.2-59.2,36-80     c20.8-20.8,48.8-34,80-36v17.6c0,4,3.2,7.6,7.6,7.6c4,0,7.6-3.2,7.6-7.6V90.6c31.2,2,59.2,15.2,80,36s34,48.8,36,80h-17.2     c-4,0-7.6,3.2-7.6,7.6C302.8,218.2,306,221.8,310.4,221.8z" data-original="#000000" class="active-path" data-old_color="#A80303" fill="#920000"/>
			<path d="M211.2,192.2v-56.8c0-4-3.2-7.6-7.6-7.6c-4,0-7.6,3.2-7.6,7.6v57.2c-3.2,1.2-6.4,2.8-8.8,5.2c-2.4,2.4-4.4,5.2-5.2,8.8     h-42.4c-4,0-7.6,3.2-7.6,7.6c0,4,3.2,7.6,7.6,7.6h42.8c1.2,3.2,2.8,6,5.2,8.4c4,4,10,6.8,16,6.8c6.4,0,12-2.4,16-6.8     c4-4,6.8-10,6.8-16c0.4-6.4-2-12-6.4-16.4C217.6,195.4,214.8,193.4,211.2,192.2z M209.6,219.8c-1.6,1.6-3.2,2.4-5.6,2.4     c-2,0-4-0.8-5.6-2.4c-1.2-1.2-2.4-3.2-2.4-5.6c0-2,0.8-4,2.4-5.6c1.6-1.6,3.2-2.4,5.6-2.4c2,0,4,0.8,5.6,2.4     c1.2,1.2,2.4,3.2,2.4,5.6C211.6,216.2,210.8,218.2,209.6,219.8z" data-original="#000000" class="active-path" data-old_color="#A80303" fill="#920000"/>
			<path d="M392,31.4c-10.8-10.8-25.2-15.6-39.2-15.6s-27.6,5.2-38.4,16c-2.8,2.8-2.8,7.6,0,10.8L342,70.2l-15.6,15.6     c-32-30.4-75.2-49.2-122.8-49.2c-47.6,0-90.8,18.8-122.8,49.2L65.2,70.2l27.6-27.6c2.8-2.8,2.8-7.6,0-10.8     c-10.4-10.4-24.4-16-38.4-16S26.8,21,16,31.8C5.6,42.2,0,56.2,0,70.2c0,14,5.2,27.6,16,38.4c2.8,2.8,7.6,2.8,10.8,0L54.4,81     l16,16c-27.2,30.8-44,72-44,117.2c0,45.6,17.2,86.8,45.2,118.4L50,354.2c-2.8,2.8-2.8,7.6,0,10.8c2.8,2.8,7.6,2.8,10.8,0     l21.6-21.6c32,30,74.8,48.8,122,48.8s90.4-18.4,122-48.8L348,365c2.8,2.8,7.6,2.8,10.8,0c2.8-2.8,2.8-7.6,0-10.8l-21.6-21.6     c28-31.6,45.2-72.8,45.2-118.4c0-45.2-16.8-86.4-44.8-117.6l16-16l27.6,27.6c2.8,2.8,7.6,2.8,10.8,0c10.4-10.4,16-24.4,16-38.4     S402.8,42.2,392,31.4z M49.6,64.6L22.4,91.8c-4.4-6.4-6.8-14-6.8-22c0-10,4-20,11.6-27.6c7.6-7.6,17.6-11.6,27.6-11.6     c7.6,0,15.2,2.4,22,6.8L49.6,64.6z M367.6,214.2c-0.8,44.8-19.2,85.6-48.4,114.8c-29.6,29.6-70,47.6-115.2,47.6     c-44.8,0-85.6-18.4-115.2-47.6c-29.2-29.2-47.6-70-47.6-114.8c0-42.8,16.8-82,44-111.2c0.8-0.4,1.2-0.8,2-1.2     c0.8-0.8,1.2-1.2,1.6-2l0.4-0.4c29.6-29.6,70-47.6,115.2-47.6c44.8,0,85.6,18.4,115.2,47.6l0.4,0.4c0.4,0.8,0.8,1.6,1.6,2     c0.4,0.4,1.2,0.8,2,1.2C350.8,132.2,367.6,171,367.6,214.2z M385.6,91.8l-27.2-27.2l-27.2-27.2c6.4-4.4,14-6.8,22-6.8     c10,0,20,4,27.6,11.6c7.6,7.6,11.6,17.6,11.6,27.6C392,77.4,390,85,385.6,91.8z" data-original="#000000" class="active-path" data-old_color="#A80303" fill="#920000"/>
		</g>
	</g>
</g></g> </svg>
